<svg width="337" height="65" viewBox="0 0 337 65" fill="none" xmlns="http://www.w3.org/2000/svg">
<path d="M336.074 24.6358C335.919 24.0185 335.635 23.4763 335.261 23.0749C334.884 22.6735 334.43 22.4303 333.955 22.3746L319.933 19.5733L313.649 2.12457C313.449 1.55396 313.134 1.07272 312.742 0.735998C312.348 0.399308 311.894 0.220703 311.431 0.220703C310.97 0.220703 310.517 0.399308 310.123 0.735998C309.731 1.07272 309.415 1.55396 309.213 2.12457L302.929 19.5396L288.907 22.3746C288.452 22.4634 288.023 22.7254 287.67 23.1311C287.318 23.5368 287.054 24.0698 286.911 24.6696C286.781 25.2557 286.771 25.8795 286.879 26.4742C286.988 27.0689 287.212 27.6116 287.527 28.0446L297.705 41.5446L295.241 60.7146C295.154 61.3474 295.199 62.0015 295.374 62.5995C295.549 63.1972 295.844 63.7146 296.226 64.0896C296.601 64.4544 297.04 64.6697 297.496 64.7116C297.954 64.7534 298.41 64.6198 298.814 64.3258L311.431 55.3146L323.999 64.3596C324.346 64.6269 324.736 64.7663 325.132 64.7646C325.655 64.7673 326.165 64.5425 326.586 64.1233C326.971 63.7484 327.267 63.231 327.442 62.6333C327.614 62.0352 327.661 61.3811 327.572 60.7483L325.108 41.5783L335.285 28.0783C335.643 27.6656 335.906 27.1229 336.044 26.5133C336.185 25.9042 336.195 25.253 336.074 24.6358V24.6358ZM320.919 38.1358C320.63 38.5186 320.413 38.9924 320.29 39.5162C320.164 40.0397 320.137 40.5972 320.204 41.1396L321.978 55.2808L312.712 48.5308C312.358 48.271 311.958 48.1349 311.554 48.1349C311.153 48.1349 310.753 48.271 310.396 48.5308L301.13 55.2808L302.905 41.1396C302.974 40.5972 302.947 40.0397 302.821 39.5162C302.695 38.9924 302.481 38.5186 302.19 38.1358L294.797 28.0108L305.172 25.9521C305.571 25.8761 305.95 25.667 306.278 25.3434C306.604 25.0198 306.867 24.5914 307.045 24.0958L311.431 11.2371L316.064 24.1296C316.241 24.6252 316.505 25.0535 316.833 25.3771C317.158 25.7008 317.538 25.9099 317.937 25.9858L328.311 28.0446L320.919 38.1358Z" fill="#EA5959"/>
<path d="M50.2143 26.0869C50.4607 24.3995 49.475 22.3745 48.2429 22.3745L34.1964 19.6745L27.7893 2.12455C27.5429 1.44955 27.2964 1.11205 26.8036 0.774548C25.5714 -0.237952 24.0929 0.437047 23.3536 2.12455L17.1929 19.6745L3.14643 22.3745C2.40715 22.3745 1.91429 22.712 1.66786 23.387C0.682145 24.737 0.682145 26.7619 1.66786 28.1119L11.7714 41.6119L9.30715 60.8494C9.30715 61.5244 9.30715 62.1994 9.55357 62.8744C10.2929 64.5619 11.7714 65.2369 13.0036 64.2244L25.5714 55.1119L38.1393 64.2244C38.3857 64.5619 38.8786 64.5619 39.3714 64.5619H39.8643C41.0964 64.2244 42.0821 62.5369 41.8357 60.5119L39.3714 41.2744L49.475 27.7744C49.9679 27.4369 50.2143 26.7619 50.2143 26.0869V26.0869Z" fill="#EA5959"/>
<path d="M193.143 26.0869C193.389 24.3995 192.404 22.3745 191.171 22.3745L177.125 19.6745L170.718 2.12455C170.471 1.44955 170.225 1.11205 169.732 0.774548C168.5 -0.237952 167.021 0.437047 166.282 2.12455L160.121 19.6745L146.075 22.3745C145.336 22.3745 144.843 22.712 144.596 23.387C143.611 24.737 143.611 26.7619 144.596 28.1119L154.7 41.6119L152.236 60.8494C152.236 61.5244 152.236 62.1994 152.482 62.8744C153.221 64.5619 154.7 65.2369 155.932 64.2244L168.5 55.1119L181.068 64.2244C181.314 64.5619 181.807 64.5619 182.3 64.5619H182.793C184.025 64.2244 185.011 62.5369 184.764 60.5119L182.3 41.2744L192.404 27.7744C192.896 27.4369 193.143 26.7619 193.143 26.0869V26.0869Z" fill="#EA5959"/>
<path d="M121.679 26.0869C121.925 24.3995 120.939 22.3745 119.707 22.3745L105.661 19.6745L99.2536 2.12455C99.0071 1.44955 98.7607 1.11205 98.2679 0.774548C97.0357 -0.237952 95.5571 0.437047 94.8179 2.12455L88.6571 19.6745L74.6107 22.3745C73.8714 22.3745 73.3786 22.712 73.1321 23.387C72.1464 24.737 72.1464 26.7619 73.1321 28.1119L83.2357 41.6119L80.7714 60.8494C80.7714 61.5244 80.7714 62.1994 81.0179 62.8744C81.7571 64.5619 83.2357 65.2369 84.4679 64.2244L97.0357 55.1119L109.604 64.2244C109.85 64.5619 110.343 64.5619 110.836 64.5619H111.329C112.561 64.2244 113.546 62.5369 113.3 60.5119L110.836 41.2744L120.939 27.7744C121.432 27.4369 121.679 26.7619 121.679 26.0869V26.0869Z" fill="#EA5959"/>
<path d="M264.607 26.0869C264.854 24.3995 263.868 22.3745 262.636 22.3745L248.589 19.6745L242.182 2.12455C241.936 1.44955 241.689 1.11205 241.196 0.774548C239.964 -0.237952 238.486 0.437047 237.746 2.12455L231.586 19.6745L217.539 22.3745C216.8 22.3745 216.307 22.712 216.061 23.387C215.075 24.737 215.075 26.7619 216.061 28.1119L226.164 41.6119L223.7 60.8494C223.7 61.5244 223.7 62.1994 223.946 62.8744C224.686 64.5619 226.164 65.2369 227.396 64.2244L239.964 55.1119L252.532 64.2244C252.779 64.5619 253.271 64.5619 253.764 64.5619H254.257C255.489 64.2244 256.475 62.5369 256.229 60.5119L253.764 41.2744L263.868 27.7744C264.361 27.4369 264.607 26.7619 264.607 26.0869V26.0869Z" fill="#EA5959"/>
</svg>
